REM DIRINDEX 1\2\4,1\2\5,1\3\6,1\3\7,1\3\8
REM DIRNAME cjc092,folder01,folder02,folder03,folder04,folder05,folder06,folder07
TITLE ""
FILE "LEVEL2-004-midashigo.mp3" MP3
  TRACK 01 AUDIO
    TITLE "0:"
    INDEX 01 00:00:00
  TRACK 02 AUDIO
    TITLE "6:cjc092_0988"
    INDEX 01 00:00:03
  TRACK 03 AUDIO
    TITLE "0:"
    INDEX 01 00:04:54
  TRACK 04 AUDIO
    TITLE "7:cjc092_0989"
    INDEX 01 00:05:32
  TRACK 05 AUDIO
    TITLE "8:cjc092_0990"
    INDEX 01 00:06:67
  TRACK 06 AUDIO
    TITLE "0:"
    INDEX 01 00:10:21
  TRACK 07 AUDIO
    TITLE "7:cjc092_0991"
    INDEX 01 00:10:57
  TRACK 08 AUDIO
    TITLE "8:cjc092_0992"
    INDEX 01 00:12:30
  TRACK 09 AUDIO
    TITLE "0:"
    INDEX 01 00:14:43
  TRACK 10 AUDIO
    TITLE "7:cjc092_0993"
    INDEX 01 00:15:07
  TRACK 11 AUDIO
    TITLE "8:cjc092_0994"
    INDEX 01 00:16:24
  TRACK 12 AUDIO
    TITLE "0:"
    INDEX 01 00:20:61
  TRACK 13 AUDIO
    TITLE "7:cjc092_0995"
    INDEX 01 00:21:19
  TRACK 14 AUDIO
    TITLE "8:cjc092_0996"
    INDEX 01 00:22:38
  TRACK 15 AUDIO
    TITLE "0:"
    INDEX 01 00:23:57
  TRACK 16 AUDIO
    TITLE "7:cjc092_0997"
    INDEX 01 00:24:20
  TRACK 17 AUDIO
    TITLE "8:cjc092_0998"
    INDEX 01 00:25:52
  TRACK 18 AUDIO
    TITLE "0:"
    INDEX 01 00:28:74
  TRACK 19 AUDIO
    TITLE "7:cjc092_0999"
    INDEX 01 00:29:34
  TRACK 20 AUDIO
    TITLE "8:cjc092_1000"
    INDEX 01 00:30:55
  TRACK 21 AUDIO
    TITLE "0:"
    INDEX 01 00:34:28
  TRACK 22 AUDIO
    TITLE "7:cjc092_1001"
    INDEX 01 00:34:67
  TRACK 23 AUDIO
    TITLE "8:cjc092_1002"
    INDEX 01 00:36:15
  TRACK 24 AUDIO
    TITLE "0:"
    INDEX 01 00:38:16
  TRACK 25 AUDIO
    TITLE "7:cjc092_1003"
    INDEX 01 00:38:43
  TRACK 26 AUDIO
    TITLE "8:cjc092_1004"
    INDEX 01 00:40:05
  TRACK 27 AUDIO
    TITLE "0:"
    INDEX 01 00:44:52
  TRACK 28 AUDIO
    TITLE "7:cjc092_1005"
    INDEX 01 00:45:12
  TRACK 29 AUDIO
    TITLE "8:cjc092_1006"
    INDEX 01 00:46:45
  TRACK 30 AUDIO
    TITLE "0:"
    INDEX 01 00:49:70
  TRACK 31 AUDIO
    TITLE "7:cjc092_1007"
    INDEX 01 00:50:31
  TRACK 32 AUDIO
    TITLE "8:cjc092_1008"
    INDEX 01 00:51:44
  TRACK 33 AUDIO
    TITLE "0:"
    INDEX 01 00:54:70
  TRACK 34 AUDIO
    TITLE "7:cjc092_1009"
    INDEX 01 00:55:34
  TRACK 35 AUDIO
    TITLE "8:cjc092_1010"
    INDEX 01 00:56:63
  TRACK 36 AUDIO
    TITLE "0:"
    INDEX 01 00:58:07
  TRACK 37 AUDIO
    TITLE "7:cjc092_1011"
    INDEX 01 00:58:46
  TRACK 38 AUDIO
    TITLE "8:cjc092_1012"
    INDEX 01 01:00:02
  TRACK 39 AUDIO
    TITLE "0:"
    INDEX 01 01:06:16
  TRACK 40 AUDIO
    TITLE "7:cjc092_1013"
    INDEX 01 01:06:53
  TRACK 41 AUDIO
    TITLE "8:cjc092_1014"
    INDEX 01 01:08:05
  TRACK 42 AUDIO
    TITLE "0:"
    INDEX 01 01:09:30
  TRACK 43 AUDIO
    TITLE "7:cjc092_1015"
    INDEX 01 01:09:57
  TRACK 44 AUDIO
    TITLE "8:cjc092_1016"
    INDEX 01 01:11:17
  TRACK 45 AUDIO
    TITLE "0:"
    INDEX 01 01:13:73
  TRACK 46 AUDIO
    TITLE "7:cjc092_1017"
    INDEX 01 01:14:35
  TRACK 47 AUDIO
    TITLE "8:cjc092_1018"
    INDEX 01 01:15:72
  TRACK 48 AUDIO
    TITLE "0:"
    INDEX 01 01:20:08
  TRACK 49 AUDIO
    TITLE "7:cjc092_1019"
    INDEX 01 01:20:46
  TRACK 50 AUDIO
    TITLE "8:cjc092_1020"
    INDEX 01 01:21:69
  TRACK 51 AUDIO
    TITLE "0:"
    INDEX 01 01:25:21
  TRACK 52 AUDIO
    TITLE "7:cjc092_1021"
    INDEX 01 01:25:58
  TRACK 53 AUDIO
    TITLE "8:cjc092_1022"
    INDEX 01 01:27:26
  TRACK 54 AUDIO
    TITLE "0:"
    INDEX 01 01:29:37
  TRACK 55 AUDIO
    TITLE "7:cjc092_1023"
    INDEX 01 01:29:66
  TRACK 56 AUDIO
    TITLE "8:cjc092_1024"
    INDEX 01 01:31:16
  TRACK 57 AUDIO
    TITLE "0:"
    INDEX 01 01:37:09
  TRACK 58 AUDIO
    TITLE "7:cjc092_1025"
    INDEX 01 01:37:46
  TRACK 59 AUDIO
    TITLE "8:cjc092_1026"
    INDEX 01 01:39:14
  TRACK 60 AUDIO
    TITLE "0:"
    INDEX 01 01:42:28
  TRACK 61 AUDIO
    TITLE "7:cjc092_1027"
    INDEX 01 01:42:63
  TRACK 62 AUDIO
    TITLE "8:cjc092_1028"
    INDEX 01 01:44:24
  TRACK 63 AUDIO
    TITLE "0:"
    INDEX 01 01:46:49
  TRACK 64 AUDIO
    TITLE "7:cjc092_1029"
    INDEX 01 01:47:09
  TRACK 65 AUDIO
    TITLE "8:cjc092_1030"
    INDEX 01 01:48:50
  TRACK 66 AUDIO
    TITLE "0:"
    INDEX 01 01:50:11
